<svg xmlns="http://www.w3.org/2000/svg" width="1200" height="630" viewBox="0 0 1200 630">
  <defs>
    <style>
      @import url('https://fonts.googleapis.com/css2?family=Press+Start+2P&amp;family=JetBrains+Mono:wght@400;700&amp;display=swap');
    </style>
  </defs>

  <!-- Background -->
  <rect width="1200" height="630" fill="#0a0a0a"/>

  <!-- Grid pattern -->
  <g opacity="0.06">
    <line x1="0" y1="0" x2="0" y2="630" stroke="#00ff41" stroke-width="1"/>
    <line x1="40" y1="0" x2="40" y2="630" stroke="#00ff41" stroke-width="1"/>
    <line x1="80" y1="0" x2="80" y2="630" stroke="#00ff41" stroke-width="1"/>
    <line x1="120" y1="0" x2="120" y2="630" stroke="#00ff41" stroke-width="1"/>
    <line x1="160" y1="0" x2="160" y2="630" stroke="#00ff41" stroke-width="1"/>
    <line x1="200" y1="0" x2="200" y2="630" stroke="#00ff41" stroke-width="1"/>
    <line x1="240" y1="0" x2="240" y2="630" stroke="#00ff41" stroke-width="1"/>
    <line x1="280" y1="0" x2="280" y2="630" stroke="#00ff41" stroke-width="1"/>
    <line x1="320" y1="0" x2="320" y2="630" stroke="#00ff41" stroke-width="1"/>
    <line x1="360" y1="0" x2="360" y2="630" stroke="#00ff41" stroke-width="1"/>
    <line x1="400" y1="0" x2="400" y2="630" stroke="#00ff41" stroke-width="1"/>
    <line x1="440" y1="0" x2="440" y2="630" stroke="#00ff41" stroke-width="1"/>
    <line x1="480" y1="0" x2="480" y2="630" stroke="#00ff41" stroke-width="1"/>
    <line x1="520" y1="0" x2="520" y2="630" stroke="#00ff41" stroke-width="1"/>
    <line x1="560" y1="0" x2="560" y2="630" stroke="#00ff41" stroke-width="1"/>
    <line x1="600" y1="0" x2="600" y2="630" stroke="#00ff41" stroke-width="1"/>
    <line x1="640" y1="0" x2="640" y2="630" stroke="#00ff41" stroke-width="1"/>
    <line x1="680" y1="0" x2="680" y2="630" stroke="#00ff41" stroke-width="1"/>
    <line x1="720" y1="0" x2="720" y2="630" stroke="#00ff41" stroke-width="1"/>
    <line x1="760" y1="0" x2="760" y2="630" stroke="#00ff41" stroke-width="1"/>
    <line x1="800" y1="0" x2="800" y2="630" stroke="#00ff41" stroke-width="1"/>
    <line x1="840" y1="0" x2="840" y2="630" stroke="#00ff41" stroke-width="1"/>
    <line x1="880" y1="0" x2="880" y2="630" stroke="#00ff41" stroke-width="1"/>
    <line x1="920" y1="0" x2="920" y2="630" stroke="#00ff41" stroke-width="1"/>
    <line x1="960" y1="0" x2="960" y2="630" stroke="#00ff41" stroke-width="1"/>
    <line x1="1000" y1="0" x2="1000" y2="630" stroke="#00ff41" stroke-width="1"/>
    <line x1="1040" y1="0" x2="1040" y2="630" stroke="#00ff41" stroke-width="1"/>
    <line x1="1080" y1="0" x2="1080" y2="630" stroke="#00ff41" stroke-width="1"/>
    <line x1="1120" y1="0" x2="1120" y2="630" stroke="#00ff41" stroke-width="1"/>
    <line x1="1160" y1="0" x2="1160" y2="630" stroke="#00ff41" stroke-width="1"/>
    <line x1="0" y1="0" x2="1200" y2="0" stroke="#00ff41" stroke-width="1"/>
    <line x1="0" y1="40" x2="1200" y2="40" stroke="#00ff41" stroke-width="1"/>
    <line x1="0" y1="80" x2="1200" y2="80" stroke="#00ff41" stroke-width="1"/>
    <line x1="0" y1="120" x2="1200" y2="120" stroke="#00ff41" stroke-width="1"/>
    <line x1="0" y1="160" x2="1200" y2="160" stroke="#00ff41" stroke-width="1"/>
    <line x1="0" y1="200" x2="1200" y2="200" stroke="#00ff41" stroke-width="1"/>
    <line x1="0" y1="240" x2="1200" y2="240" stroke="#00ff41" stroke-width="1"/>
    <line x1="0" y1="280" x2="1200" y2="280" stroke="#00ff41" stroke-width="1"/>
    <line x1="0" y1="320" x2="1200" y2="320" stroke="#00ff41" stroke-width="1"/>
    <line x1="0" y1="360" x2="1200" y2="360" stroke="#00ff41" stroke-width="1"/>
    <line x1="0" y1="400" x2="1200" y2="400" stroke="#00ff41" stroke-width="1"/>
    <line x1="0" y1="440" x2="1200" y2="440" stroke="#00ff41" stroke-width="1"/>
    <line x1="0" y1="480" x2="1200" y2="480" stroke="#00ff41" stroke-width="1"/>
    <line x1="0" y1="520" x2="1200" y2="520" stroke="#00ff41" stroke-width="1"/>
    <line x1="0" y1="560" x2="1200" y2="560" stroke="#00ff41" stroke-width="1"/>
    <line x1="0" y1="600" x2="1200" y2="600" stroke="#00ff41" stroke-width="1"/>
  </g>

  <!-- Top border line -->
  <rect x="40" y="40" width="1120" height="550" rx="8" fill="none" stroke="#2a2a4e" stroke-width="2"/>

  <!-- Title: GITVANA -->
  <text x="600" y="140" text-anchor="middle" font-family="'Press Start 2P', monospace" font-size="64" fill="#ffa300" letter-spacing="8">GITVANA</text>

  <!-- Subtitle -->
  <text x="600" y="200" text-anchor="middle" font-family="'JetBrains Mono', monospace" font-size="24" fill="#00ff41">Reach git enlightenment</text>

  <!-- Divider -->
  <line x1="300" y1="240" x2="900" y2="240" stroke="#2a2a4e" stroke-width="1"/>

  <!-- Description -->
  <text x="600" y="300" text-anchor="middle" font-family="'JetBrains Mono', monospace" font-size="20" fill="#c2c3c7">A browser game that teaches git</text>
  <text x="600" y="335" text-anchor="middle" font-family="'JetBrains Mono', monospace" font-size="20" fill="#c2c3c7">through real terminal commands</text>

  <!-- Features -->
  <text x="600" y="400" text-anchor="middle" font-family="'JetBrains Mono', monospace" font-size="18" fill="#5f574f">38 levels  •  6 acts  •  Real git  •  Free to play</text>

  <!-- Monastery flavor -->
  <text x="600" y="450" text-anchor="middle" font-family="'JetBrains Mono', monospace" font-size="16" fill="#5f574f88">Welcome to the Monastery of Version Control</text>

  <!-- Stars decoration -->
  <text x="460" y="500" font-family="monospace" font-size="36" fill="#ffa300">★ ★ ★ ★ ★</text>

  <!-- URL -->
  <text x="600" y="560" text-anchor="middle" font-family="'JetBrains Mono', monospace" font-size="18" fill="#29adff">gitvana.pixari.dev</text>
</svg>